<svg width="390" height="215" viewBox="0 0 390 215" fill="none" xmlns="http://www.w3.org/2000/svg">
<path d="M537.717 121.557L507.666 129.683C478.004 137.585 417.9 153.836 370.035 190.484C322.171 227.132 285.766 284.624 235.268 316.69C184.77 348.755 119.4 355.842 87.105 359.162L54.4202 362.705" stroke="#FFE3B8" stroke-opacity="0.4"/>
<path d="M488.507 74.5253L458.456 82.6511C428.793 90.553 368.69 106.804 320.825 143.452C272.961 180.1 236.556 237.592 186.058 269.658C135.56 301.723 70.1902 308.81 37.8949 312.13L5.21008 315.673" stroke="#FFE3B8" stroke-opacity="0.4"/>
<path d="M439.297 27.4936L409.246 35.6193C379.583 43.5212 319.48 59.7727 271.615 96.4205C223.751 133.068 187.345 190.56 136.848 222.626C86.3498 254.691 20.9801 261.778 -11.3152 265.098L-44 268.641" stroke="#FFE3B8" stroke-opacity="0.4"/>
<path d="M513.112 98.0415L483.061 106.167C453.399 114.069 393.295 130.321 345.43 166.968C297.566 203.616 261.161 261.108 210.663 293.174C160.165 325.239 94.7952 332.326 62.5 335.646L29.8151 339.189" stroke="#FFE3B8" stroke-opacity="0.4"/>
<path d="M562.322 145.073L532.271 153.199C502.609 161.101 442.505 177.352 394.64 214C346.776 250.648 310.371 308.14 259.873 340.205C209.375 372.271 144.005 379.358 111.71 382.678L79.0252 386.221" stroke="#FFE3B8" stroke-opacity="0.4"/>
<path d="M463.902 51.0095L433.851 59.1352C404.188 67.0371 344.085 83.2886 296.22 119.936C248.356 156.584 211.95 214.076 161.453 246.142C110.955 278.207 45.5851 285.294 13.2899 288.614L-19.395 292.157" stroke="#FFE3B8" stroke-opacity="0.4"/>
</svg>
