<svg width="20" height="22" viewBox="0 0 20 22" fill="none" xmlns="http://www.w3.org/2000/svg">
<path d="M1 6.57014C1 4.88998 1 4.04991 1.32698 3.40817C1.6146 2.84368 2.07354 2.38474 2.63803 2.09712C3.27976 1.77014 4.11984 1.77014 5.8 1.77014H14.2C15.8802 1.77014 16.7202 1.77014 17.362 2.09712C17.9265 2.38474 18.3854 2.84368 18.673 3.40817C19 4.04991 19 4.88998 19 6.57014V11.9701C19 13.6503 19 14.4904 18.673 15.1321C18.3854 15.6966 17.9265 16.1555 17.362 16.4432C16.7202 16.7701 15.8802 16.7701 14.2 16.7701H11.6837C11.0597 16.7701 10.7477 16.7701 10.4492 16.8314C10.1844 16.8857 9.9282 16.9756 9.68749 17.0986C9.41617 17.2372 9.17252 17.4321 8.68521 17.822L6.29976 19.7303C5.88367 20.0632 5.67563 20.2296 5.50054 20.2298C5.34827 20.23 5.20422 20.1608 5.10923 20.0418C5 19.9049 5 19.6385 5 19.1056V16.7701C4.07003 16.7701 3.60504 16.7701 3.22354 16.6679C2.18827 16.3905 1.37962 15.5819 1.10222 14.5466C1 14.1651 1 13.7001 1 12.7701V6.57014Z" stroke="#D7D7D7" stroke-width="2" stroke-linecap="round" stroke-linejoin="round"/>
</svg>
