<svg width="138" height="181" viewBox="0 0 138 181" fill="none" xmlns="http://www.w3.org/2000/svg">
<path d="M134.226 63.8469C129.708 63.8469 125.755 67.518 125.755 72.3175V88.4123C125.755 92.9297 124.061 97.4483 120.954 100.554L102.318 120.32C98.0822 124.837 91.0234 120.602 93.2817 118.626L107.683 104.225C111.918 99.9899 111.918 92.9311 107.683 88.4124C104.859 85.5889 103.165 90.9538 85.093 107.896C72.9514 120.038 79.164 133.875 77.4688 165.782C77.4688 166.347 77.7508 166.63 78.3163 166.63H104.577C105.141 166.63 105.425 166.348 105.425 165.782L105.423 155.336C105.423 142.346 114.741 137.547 129.989 116.935C141.566 105.357 135.918 92.0858 137.331 67.2388C137.331 65.2616 135.919 63.8497 134.225 63.8497L134.226 63.8469Z" fill="#FFE3B8"/>
<path d="M32.2911 166.064C32.2911 166.628 32.5732 166.911 33.1387 166.911H59.1171C59.6813 166.911 59.9647 166.629 59.9647 166.064C58.2709 135.004 64.482 121.167 52.3404 109.306L33.14 90.1057C32.8579 89.5415 32.2924 89.5415 31.7282 89.5415C31.164 89.5415 30.5985 89.8236 30.3164 90.1057C26.081 94.3411 26.081 101.4 30.3164 105.636C44.1519 119.755 46.1294 120.32 44.4355 121.731C41.894 124.273 37.9407 124.273 35.3995 121.449C21.2804 104.789 12.2458 101.119 12.2458 89.8236V74.0106C12.2458 71.7513 11.3982 69.7752 9.70435 68.0816C8.29258 66.6698 6.03332 65.5402 3.77532 65.5402C2.08147 65.5402 0.669702 66.9519 0.669702 68.6458C2.08147 92.9293 -3.56575 106.201 8.01177 117.779L27.2122 141.217C30.6014 145.17 32.295 150.252 32.295 155.617L32.2911 166.064Z" fill="#FFE3B8"/>
<path d="M62.502 171.432H29.4647C28.9005 171.432 28.6171 171.714 28.6171 172.28V179.622C28.6171 180.186 28.8992 180.469 29.4647 180.469H62.2201C62.7843 180.469 63.0677 180.187 63.0677 179.622V172.28C63.3498 171.996 62.7843 171.432 62.5022 171.432H62.502Z" fill="#9FCFBD"/>
<path d="M107.682 171.432H74.9264C74.3622 171.432 74.0788 171.714 74.0788 172.28V179.622C74.0788 180.186 74.3609 180.469 74.9264 180.469H107.682C108.246 180.469 108.529 180.187 108.529 179.622V172.28C108.529 171.996 108.246 171.432 107.682 171.432Z" fill="#9FCFBD"/>
<path d="M91.3051 90.6732C98.3639 92.085 105.706 85.8723 104.576 77.9658C101.753 78.53 94.1285 78.2479 94.9761 75.9899C95.2582 75.4257 95.8237 75.1423 96.3879 75.1423C111.071 79.6596 117.284 64.6943 109.942 57.07C115.871 52.2691 115.589 43.2345 109.094 38.7158C113.329 32.5033 110.224 23.7505 103.165 21.4912C102.883 23.4671 101.189 29.1154 99.4939 27.9859C98.9297 27.7038 98.6463 26.8563 99.2118 26.5742C99.2118 26.5742 100.624 24.3148 101.188 21.2092C103.729 12.7386 96.3869 4.83216 88.4804 6.52608C84.8093 -0.532786 75.4912 -1.66228 70.4081 3.42046L70.4094 36.7396C71.257 36.1755 71.8211 35.3279 72.1032 34.4803C72.3853 33.9161 72.9508 33.6327 73.515 33.9161C74.0792 34.1982 74.3626 34.7637 74.0792 35.3279C73.515 37.0217 72.1032 38.4335 70.4081 39.2811V59.8936C72.3841 60.7412 74.0792 62.153 74.9255 64.4109C75.2076 64.9751 74.9255 65.5406 74.3613 65.8227C73.7971 66.1048 73.2316 65.8227 72.9495 65.2585C72.3853 64.1289 71.5377 62.9992 70.4081 62.435V92.0835C74.9267 100.838 87.916 99.9899 91.3051 90.6717L91.3051 90.6732ZM102.317 31.6591C105.988 36.7418 104.011 42.9534 102.035 42.9534C101.753 42.9534 101.753 42.9534 101.471 42.6713C100.907 42.3892 100.907 41.5416 101.189 41.2595C103.73 37.3063 100.625 33.0712 100.625 33.0712C99.4937 31.6594 101.47 30.5294 102.317 31.6591ZM100.341 57.0721C107.118 55.3783 109.659 49.4479 107.683 43.5185C107.401 42.9543 107.965 42.3888 108.531 42.1067C111.072 41.2591 111.92 51.1427 107.119 55.9422C112.202 63.0011 107.401 70.9076 105.143 70.9076C104.013 70.9076 103.731 69.4958 104.579 68.9316C107.685 66.6723 108.532 61.8728 105.427 57.3541C104.297 58.2017 102.603 58.7659 100.909 59.3301H100.627C100.063 59.3301 99.7795 59.048 99.4975 58.4825C99.4936 57.9196 99.7757 57.3542 100.341 57.0721ZM99.2115 63.2847C100.341 64.9785 100.059 67.5201 98.6474 68.9319C97.2356 70.3436 95.2582 70.3436 93.8465 70.9078C92.1527 71.472 91.8705 72.8838 92.1527 73.4492C92.7168 74.2968 92.1527 75.1431 91.3051 75.1431C89.6112 75.1431 88.4815 70.6258 92.9989 68.9305C93.5631 68.6484 94.1286 68.6484 94.6928 68.3663C95.5403 68.0842 96.6687 67.8022 97.2342 67.2367C98.0818 66.6725 98.0818 65.2607 97.5163 64.4131C97.2342 63.8489 97.2342 63.2835 97.7984 62.7193C98.3639 62.7193 98.9281 62.7192 99.2115 63.2847ZM98.6461 37.024C98.6461 37.5882 98.0819 38.1537 97.5164 38.1537C93.5632 37.8716 90.4575 39.5655 88.1982 41.5429C92.7155 43.5188 96.9523 45.4961 98.0805 48.8849C98.3626 49.4491 98.0805 50.0146 97.5163 50.2967H97.2342C96.67 50.2967 96.3866 50.0146 96.1045 49.4491C94.9749 46.6256 89.0457 44.3664 85.9387 42.6725C85.6566 42.3904 80.5738 40.6965 79.7262 31.9426C79.7262 30.5308 81.7021 30.2487 81.9855 31.6605C82.2676 34.484 83.1152 38.1553 86.221 40.131C88.7624 37.8717 92.9976 35.3302 98.0807 35.6137C98.3641 35.8945 98.9282 36.1765 98.6461 37.024ZM84.2451 24.0348C83.3976 22.9052 85.0927 21.4934 85.939 22.623C89.8922 28.2702 87.3508 35.0469 85.0914 33.6352C84.5272 33.3531 84.5272 32.5055 84.8093 32.2234C87.352 28.5537 84.2451 24.0348 84.2451 24.0348ZM73.7985 7.09236C72.3867 5.1164 77.7517 3.13911 81.7049 6.24477C85.6582 9.06831 86.2223 14.4331 89.6114 17.2569C91.0232 18.3865 93.0006 18.9507 94.6942 17.8211C96.388 16.6914 98.0833 20.6446 93.0003 20.6446C89.3293 20.6446 86.7877 18.1032 85.0938 14.7156C83.1179 20.3627 77.1873 17.8212 76.9055 23.4697C76.9055 24.0339 76.3413 24.5993 75.7758 24.5993C75.2116 24.5993 74.6461 24.0352 74.6461 23.4697C74.6461 15.8454 84.8119 18.1047 83.1167 11.6099V11.3279C82.2691 10.1982 81.7049 9.06849 80.5753 8.22223C79.1635 7.09257 76.9042 6.52838 75.4925 7.65805C74.6449 7.94014 74.0805 7.65784 73.7985 7.09236ZM73.7985 47.4734C74.9281 45.4974 77.7517 44.932 80.2932 47.4734C81.4229 48.6031 82.2692 50.0148 83.3988 50.579C85.6582 51.4266 85.9403 48.3197 87.6343 49.1672C89.6103 50.2969 86.5046 52.8383 84.2451 52.8383C82.2692 52.8383 81.1395 51.4265 79.7278 50.0147C79.1636 49.1671 78.316 48.0388 77.1864 48.0388C76.6222 48.0388 76.0567 48.3209 76.0567 48.603C75.7746 49.1671 75.2091 49.4505 74.6449 49.1671C73.7987 48.603 73.5151 48.0376 73.7985 47.4734ZM74.6447 58.2033C74.3627 57.6391 74.6447 57.0736 75.2089 56.7915C80.5739 54.8156 84.5271 57.3557 86.7864 62.1565C90.4575 60.1805 94.4107 60.4626 95.5406 57.921C95.8226 57.0734 95.8226 55.9451 95.2585 54.8154C94.9764 54.2512 95.2585 53.6857 95.8226 53.4036C96.3868 53.1215 96.9523 53.4036 97.2344 53.9678C98.082 55.9438 98.3641 57.6388 97.5165 59.0505C96.3868 61.3099 94.1273 62.1562 92.1516 62.7216C89.8922 63.2858 88.1983 63.8512 86.7866 64.9809C85.3748 65.8285 84.2452 66.9569 83.9631 68.0866C83.681 68.6507 83.681 69.4983 83.681 70.3459C83.681 70.9101 83.1168 71.4756 82.5513 71.4756C81.9871 71.4756 81.4216 70.9114 81.4216 70.3459C81.4216 67.5224 82.8334 65.2632 85.0927 63.5693C83.3988 59.616 80.5753 57.6402 76.3386 59.0519C75.4923 59.0493 74.6447 58.7675 74.6447 58.2033ZM76.3399 93.4993C76.9041 90.9578 81.4227 95.7586 84.8105 87.2867C81.4213 86.157 78.5979 83.0512 76.3399 78.2507C76.0578 77.6865 76.3399 77.121 76.9041 76.8389C77.4683 76.5568 78.0338 76.8389 78.3159 77.4031C82.2691 85.3096 89.0458 88.6974 95.5406 82.7681C96.1047 82.486 96.6702 82.486 97.2344 82.7681C99.2103 84.744 91.3054 88.4152 87.0686 87.8508C83.3989 96.8881 76.0564 95.4764 76.3399 93.4993Z" fill="#9FCFBD"/>
<path d="M49.5131 6.24442C41.8889 4.83264 34.2659 12.1734 36.8058 20.9276C37.37 24.0332 38.7817 26.2925 38.7817 26.2925C39.6293 27.7043 37.6521 28.5519 36.8058 27.4222C36.8058 27.1401 35.394 24.5986 34.5464 21.2096C30.0291 22.6214 26.6399 26.8567 26.6399 31.9395C26.6399 34.1988 27.4875 36.4568 28.6159 38.1521C25.7923 40.128 23.815 43.517 23.815 47.4702C23.815 51.1413 25.5089 54.2469 28.0505 56.2243C26.0745 58.2003 24.9449 61.0252 24.9449 64.1308C24.9449 68.9317 27.7684 72.8849 31.7215 74.5788C38.2163 77.1203 42.1695 72.885 43.0158 75.143C43.58 77.119 37.6509 77.4024 36.2392 77.4024C35.3916 77.4024 34.2632 77.4024 33.1335 77.1203V78.5321C33.1335 85.8741 39.9102 91.2394 46.6872 89.8264C50.0763 99.1446 63.0642 99.9922 67.5829 91.2382L67.5855 62.436C65.0441 63.8477 65.3261 66.3892 63.6323 65.8251C61.3729 64.9775 64.7619 61.0243 67.5855 59.8961V39.5645C65.8916 38.7169 64.4799 37.3051 63.9145 35.6112C63.6324 35.047 63.9145 34.4816 64.4786 34.1995C65.0428 33.9174 65.6083 34.1995 65.8904 34.7636C66.1725 35.6112 66.738 36.4575 67.5843 37.023L67.5856 3.13808C62.5028 -1.94366 53.1846 -0.815163 49.5133 6.24499L49.5131 6.24442ZM52.0546 40.1293C55.1602 38.1534 56.0078 34.4822 56.29 31.6588C56.29 31.0946 56.8542 30.5291 57.4197 30.5291C57.9839 30.5291 58.5493 31.0933 58.5493 31.6588C57.9852 40.4129 52.6203 42.1068 52.3368 42.3887C49.2311 44.0825 43.3008 46.0597 42.171 49.1653C41.3234 51.4247 34.8289 48.0357 49.7952 41.2588C43.0186 35.8939 39.3472 39.2829 39.0653 37.0234C39.0666 34.1998 47.255 36.1758 52.0546 40.129V40.1293ZM53.1842 32.2229C53.4663 32.787 53.4663 33.3525 52.9021 33.6346C52.3379 33.9167 51.7725 33.9167 51.4904 33.3525C48.3847 28.2698 52.0545 22.9045 52.3379 22.6226C52.62 22.0585 53.4676 22.0585 54.0318 22.3405C54.596 22.6226 54.596 23.4702 54.3139 24.0344C53.7497 24.0344 50.6429 28.553 53.1842 32.2228V32.2229ZM35.6777 31.6587C35.9598 31.0945 36.8073 31.0945 37.3715 31.3766C39.3475 32.7884 33.7005 36.1774 37.0894 41.2589C37.937 42.3885 35.9598 43.8003 35.1135 42.3885C31.7243 37.3058 35.6777 31.9405 35.6777 31.6586L35.6777 31.6587ZM32.5721 57.3539C29.4664 61.8712 30.5961 66.6721 33.4196 68.9314C33.9838 69.2135 33.9838 70.0611 33.7017 70.6253C33.4197 71.1895 32.5721 71.1895 32.0079 70.9074C28.0547 67.8018 26.643 61.8714 30.5961 56.2242C25.5134 51.4234 26.9251 41.8233 29.1844 42.3887C31.4437 42.9529 27.4905 47.1896 30.8782 52.8367C33.7017 57.9195 38.7847 56.2259 38.2203 58.4839C37.9369 60.4611 33.9838 58.2018 32.5718 57.3542L32.5721 57.3539ZM39.3487 68.9314C36.5252 66.39 38.5011 61.5894 40.1963 63.0024C41.6081 64.1321 38.7845 65.5438 40.7605 67.2378C41.6081 68.0854 43.3019 68.0854 44.7137 68.6496C50.0787 70.6256 47.8193 76.2739 45.8434 74.8622C44.4316 73.7325 47.5372 72.0386 43.8674 70.909C42.4544 70.3435 40.7605 70.3435 39.3488 68.9317L39.3487 68.9314ZM61.6548 78.2496C59.3954 83.0505 56.2898 85.8739 53.1842 87.2856C56.5734 95.7562 61.0907 90.9566 61.6548 93.4982C61.9369 95.4741 54.5959 96.8873 50.9249 87.851C47.2539 88.4152 38.7833 85.0275 40.7591 82.7683C42.4529 81.0744 44.7123 86.7215 51.2071 85.5918C51.7713 85.3097 55.7244 85.3097 59.6777 77.4035C59.9598 76.8393 60.5253 76.5559 61.0894 76.8393C61.6549 77.1201 61.9383 77.6843 61.6549 78.2497L61.6548 78.2496ZM61.9382 59.0478C57.7027 57.6361 54.8793 59.612 53.1841 63.5652C55.4434 65.259 56.8551 67.5184 56.8551 70.3418C56.8551 70.906 56.2909 71.4715 55.7254 71.4715C55.1613 71.4715 54.5958 70.9073 54.5958 70.3418C54.5958 69.4942 54.5958 68.93 54.3137 68.0824C53.7495 66.9528 52.9019 65.8231 51.4901 64.9768C50.0784 64.1292 48.3845 63.283 46.1252 62.7175C41.3243 61.5878 39.0663 58.482 41.0425 53.9634C41.6066 52.5516 43.5839 53.6813 43.0184 54.8109C40.477 60.4581 47.2539 60.1759 51.2068 62.153C53.1827 57.3521 57.4193 54.8109 62.7843 56.7881C64.1961 57.3535 63.3498 59.3308 61.938 59.0474L61.9382 59.0478ZM64.1962 47.4716C64.4783 48.0358 64.1963 48.6013 63.6321 48.8834C62.2203 49.731 62.2203 47.7537 60.8085 48.0358C58.2671 48.3179 57.4194 52.8367 53.7497 52.8367C51.2082 52.8367 48.3847 50.2952 50.3605 49.1657C52.3365 48.036 52.6199 53.4011 56.5731 48.6015C59.9609 44.6482 63.0678 45.2123 64.196 47.4718L64.1962 47.4716ZM62.7845 7.37681C61.0906 6.24714 57.9836 6.52922 55.1602 11.0478C54.596 16.1306 57.7016 16.1306 59.9611 17.2604C62.2204 18.3901 63.6321 20.6496 63.6321 23.1894C63.6321 23.7536 63.0679 24.3191 62.5024 24.3191C61.9383 24.3191 61.3728 23.7549 61.3728 23.1894C61.3728 21.4956 60.2431 20.0838 58.8313 19.2362C58.5492 18.9541 57.9837 18.9541 57.7017 18.672C55.7257 17.8244 54.0306 16.9782 53.1843 14.4366C48.1016 23.4725 40.477 20.0837 41.89 17.8257C43.3018 16.1292 46.4074 22.9061 52.0545 12.1759C53.1842 10.2 54.3139 7.94046 56.29 6.24688C58.2659 4.83511 61.3727 3.98752 63.9142 5.68269C65.326 6.52899 63.9142 8.22283 62.7846 7.37654L62.7845 7.37681Z" fill="#9FCFBD"/>
</svg>
