<svg width="390" height="283" viewBox="0 0 390 283" fill="none" xmlns="http://www.w3.org/2000/svg">
<path d="M299.717 -96.4425L269.666 -88.3168C240.004 -80.4149 179.9 -64.1635 132.035 -27.5156C84.1708 9.1322 47.7656 66.6241 -2.73222 98.6897C-53.2301 130.755 -118.6 137.842 -150.895 141.162L-183.58 144.705" stroke="#FFE3B8" stroke-opacity="0.4"/>
<path d="M373.532 -25.8947L343.481 -17.769C313.819 -9.86709 253.715 6.38438 205.851 43.0322C157.986 79.6801 121.581 137.172 71.0829 169.238C20.5851 201.303 -44.7846 208.39 -77.0799 211.71L-109.765 215.253" stroke="#FFE3B8" stroke-opacity="0.4"/>
<path d="M324.322 -72.9267L294.271 -64.8009C264.609 -56.8991 204.505 -40.6476 156.64 -3.99976C108.776 32.6481 72.3707 90.14 21.8728 122.206C-28.625 154.271 -93.9947 161.358 -126.29 164.678L-158.975 168.221" stroke="#FFE3B8" stroke-opacity="0.4"/>
<path d="M398.138 -2.37883L368.086 5.74691C338.424 13.6488 278.32 29.9003 230.456 66.5481C182.591 103.196 146.186 160.688 95.6879 192.753C45.1901 224.819 -20.1796 231.906 -52.4748 235.226L-85.1597 238.769" stroke="#FFE3B8" stroke-opacity="0.4"/>
<path d="M275.112 -119.958L245.061 -111.833C215.398 -103.931 155.295 -87.6793 107.43 -51.0315C59.5657 -14.3837 23.1606 43.1083 -27.3373 75.1738C-77.8351 107.239 -143.205 114.326 -175.5 117.646L-208.185 121.189" stroke="#FFE3B8" stroke-opacity="0.4"/>
<path d="M348.927 -49.4106L318.876 -41.2848C289.214 -33.383 229.11 -17.1315 181.246 19.5164C133.381 56.1642 96.9757 113.656 46.4779 145.722C-4.01997 177.787 -69.3897 184.874 -101.685 188.194L-134.37 191.737" stroke="#FFE3B8" stroke-opacity="0.4"/>
</svg>
